<svg width="240" height="504" viewBox="0 0 240 504" fill="none" xmlns="http://www.w3.org/2000/svg">
<g clip-path="url(#clip0_1523_23)">
<path d="M233.32 339.08C235.219 346.675 236.168 356.168 236.168 367.56C236.168 378.477 235.219 387.971 233.32 396.04H204.84C206.739 403.635 207.688 413.128 207.688 424.52C207.688 435.437 206.739 444.931 204.84 453H62.44C60.5413 444.931 59.592 435.437 59.592 424.52C59.592 413.128 60.5413 403.635 62.44 396.04H33.96C32.0613 387.971 31.112 378.477 31.112 367.56C31.112 356.168 32.0613 346.675 33.96 339.08H5.48C3.58134 331.011 2.632 321.517 2.632 310.6C2.632 299.208 3.58134 289.715 5.48 282.12C3.58134 274.051 2.632 264.557 2.632 253.64C2.632 242.248 3.58134 232.755 5.48 225.16C3.58134 217.091 2.632 207.597 2.632 196.68C2.632 185.288 3.58134 175.795 5.48 168.2H33.96C32.0613 160.131 31.112 150.637 31.112 139.72C31.112 128.328 32.0613 118.835 33.96 111.24H62.44C60.5413 103.171 59.592 93.6773 59.592 82.76C59.592 71.368 60.5413 61.8747 62.44 54.28H204.84C206.739 61.8747 207.688 71.368 207.688 82.76C207.688 93.6773 206.739 103.171 204.84 111.24H233.32C235.219 118.835 236.168 128.328 236.168 139.72C236.168 150.637 235.219 160.131 233.32 168.2H176.36C174.461 160.131 173.512 150.637 173.512 139.72C173.512 128.328 174.461 118.835 176.36 111.24H90.92C92.8187 118.835 93.768 128.328 93.768 139.72C93.768 150.637 92.8187 160.131 90.92 168.2H62.44C64.3387 175.795 65.288 185.288 65.288 196.68C65.288 207.597 64.3387 217.091 62.44 225.16C64.3387 232.755 65.288 242.248 65.288 253.64C65.288 264.557 64.3387 274.051 62.44 282.12C64.3387 289.715 65.288 299.208 65.288 310.6C65.288 321.517 64.3387 331.011 62.44 339.08H90.92C92.8187 346.675 93.768 356.168 93.768 367.56C93.768 378.477 92.8187 387.971 90.92 396.04H176.36C174.461 387.971 173.512 378.477 173.512 367.56C173.512 356.168 174.461 346.675 176.36 339.08H233.32Z" fill="#060606"/>
</g>
<defs>
<clipPath id="clip0_1523_23">
<rect width="240" height="504" fill="white"/>
</clipPath>
</defs>
</svg>
