<svg width="202" height="504" viewBox="0 0 202 504" fill="none" xmlns="http://www.w3.org/2000/svg">
<g clip-path="url(#clip0_1523_15)">
<path d="M70.96 234.72C69.616 240.096 68.944 246.816 68.944 254.88C68.944 262.608 69.616 269.328 70.96 275.04H86.08C84.736 280.416 84.064 287.136 84.064 295.2C84.064 302.928 84.736 309.648 86.08 315.36C84.736 320.736 84.064 327.456 84.064 335.52C84.064 343.248 84.736 349.968 86.08 355.68H116.32C117.664 349.968 118.336 343.248 118.336 335.52C118.336 327.456 117.664 320.736 116.32 315.36C117.664 309.648 118.336 302.928 118.336 295.2C118.336 287.136 117.664 280.416 116.32 275.04H131.44C132.784 269.328 133.456 262.608 133.456 254.88C133.456 246.816 132.784 240.096 131.44 234.72H116.32C117.664 229.008 118.336 222.288 118.336 214.56C118.336 206.496 117.664 199.776 116.32 194.4C117.664 188.688 118.336 181.968 118.336 174.24C118.336 166.176 117.664 159.456 116.32 154.08H86.08C84.736 159.456 84.064 166.176 84.064 174.24C84.064 181.968 84.736 188.688 86.08 194.4C84.736 199.776 84.064 206.496 84.064 214.56C84.064 222.288 84.736 229.008 86.08 234.72H70.96ZM131.44 194.4C130.096 199.776 129.424 206.496 129.424 214.56C129.424 222.288 130.096 229.008 131.44 234.72H171.76C173.104 229.008 173.776 222.288 173.776 214.56C173.776 206.496 173.104 199.776 171.76 194.4H131.44ZM28.624 214.56C28.624 222.288 29.296 229.008 30.64 234.72H70.96C72.304 229.008 72.976 222.288 72.976 214.56C72.976 206.496 72.304 199.776 70.96 194.4H30.64C29.296 199.776 28.624 206.496 28.624 214.56ZM173.776 295.2C173.776 287.136 173.104 280.416 171.76 275.04H131.44C130.096 280.416 129.424 287.136 129.424 295.2C129.424 302.928 130.096 309.648 131.44 315.36H171.76C173.104 309.648 173.776 302.928 173.776 295.2ZM30.64 275.04C29.296 280.416 28.624 287.136 28.624 295.2C28.624 302.928 29.296 309.648 30.64 315.36H70.96C72.304 309.648 72.976 302.928 72.976 295.2C72.976 287.136 72.304 280.416 70.96 275.04H30.64Z" fill="black"/>
</g>
<defs>
<clipPath id="clip0_1523_15">
<rect width="202" height="504" fill="white"/>
</clipPath>
</defs>
</svg>
