<svg width="220" height="504" viewBox="0 0 220 504" fill="none" xmlns="http://www.w3.org/2000/svg">
<g clip-path="url(#clip0_1523_19)">
<path d="M211.928 83.76C211.928 94.6773 210.979 104.171 209.08 112.24C210.979 119.835 211.928 129.328 211.928 140.72C211.928 151.637 210.979 161.131 209.08 169.2H187.72C189.619 176.795 190.568 186.288 190.568 197.68C190.568 208.597 189.619 218.091 187.72 226.16H166.36C168.259 233.755 169.208 243.248 169.208 254.64C169.208 265.557 168.259 275.051 166.36 283.12H145C146.899 290.715 147.848 300.208 147.848 311.6C147.848 322.517 146.899 332.011 145 340.08H123.64C125.539 347.675 126.488 357.168 126.488 368.56C126.488 379.477 125.539 388.971 123.64 397.04H102.28C104.179 404.635 105.128 414.128 105.128 425.52C105.128 436.437 104.179 445.931 102.28 454H45.32C43.4213 445.931 42.472 436.437 42.472 425.52C42.472 414.128 43.4213 404.635 45.32 397.04H66.68C64.7813 388.971 63.832 379.477 63.832 368.56C63.832 357.168 64.7813 347.675 66.68 340.08H88.04C86.1413 332.011 85.192 322.517 85.192 311.6C85.192 300.208 86.1413 290.715 88.04 283.12H109.4C107.501 275.051 106.552 265.557 106.552 254.64C106.552 243.248 107.501 233.755 109.4 226.16H130.76C128.861 218.091 127.912 208.597 127.912 197.68C127.912 186.288 128.861 176.795 130.76 169.2H152.12C150.221 161.131 149.272 151.637 149.272 140.72C149.272 129.328 150.221 119.835 152.12 112.24H9.72C7.82133 104.171 6.872 94.6773 6.872 83.76C6.872 72.368 7.82133 62.8747 9.72 55.28H209.08C210.979 62.8747 211.928 72.368 211.928 83.76Z" fill="#060606"/>
</g>
<defs>
<clipPath id="clip0_1523_19">
<rect width="220" height="504" fill="white"/>
</clipPath>
</defs>
</svg>
