<svg xmlns="http://www.w3.org/2000/svg" viewBox="0 0 701.62 509.63"><defs><style>.cls-1,.cls-2{fill:#231f20;}.cls-2{font-size:499.64px;font-family:VT323-Regular, VT323;}</style></defs><title>Asset 3</title><g id="Layer_2" data-name="Layer 2"><g id="Layer_1-2" data-name="Layer 1"><path class="cls-1" d="M231.26,340.47q2.85,11.41,2.86,28.54a125.88,125.88,0,0,1-2.86,28.55H202.71q2.85,11.43,2.85,28.56a126,126,0,0,1-2.85,28.55H60a125.37,125.37,0,0,1-2.86-28.55Q57.1,409,60,397.56H31.41A125.31,125.31,0,0,1,28.55,369q0-17.11,2.86-28.54H2.86A125.4,125.4,0,0,1,0,311.91q0-17.12,2.86-28.55A125.25,125.25,0,0,1,0,254.81q0-17.13,2.86-28.55A125.25,125.25,0,0,1,0,197.71q0-17.13,2.86-28.55H31.41a125.31,125.31,0,0,1-2.86-28.55q0-17.13,2.86-28.55H60A125.31,125.31,0,0,1,57.1,83.51Q57.1,66.38,60,55H202.71q2.85,11.43,2.85,28.55a125.92,125.92,0,0,1-2.85,28.55h28.55q2.85,11.43,2.86,28.55a125.88,125.88,0,0,1-2.86,28.55h-57.1a125.35,125.35,0,0,1-2.85-28.55q0-17.13,2.85-28.55H88.51q2.85,11.43,2.85,28.55a125.92,125.92,0,0,1-2.85,28.55H60q2.84,11.43,2.85,28.55A126.44,126.44,0,0,1,60,226.26q2.84,11.43,2.85,28.55A126.44,126.44,0,0,1,60,283.36q2.84,11.43,2.85,28.55A126.59,126.59,0,0,1,60,340.47H88.51q2.85,11.41,2.85,28.54a125.92,125.92,0,0,1-2.85,28.55h85.65A125.35,125.35,0,0,1,171.31,369q0-17.11,2.85-28.54Z"/><path class="cls-1" d="M492.85,424.51A126.56,126.56,0,0,1,490,453.06H261.59a126,126,0,0,1-2.85-28.55q0-17.14,2.85-28.56H490Q492.84,407.38,492.85,424.51Z"/><path class="cls-1" d="M698.78,112.06q2.82,11.43,2.84,28.55a127.12,127.12,0,0,1-2.84,28.55H677.36q2.85,11.43,2.86,28.55a125.82,125.82,0,0,1-2.86,28.55H656q2.85,11.43,2.85,28.55A125.86,125.86,0,0,1,656,283.36H634.53q2.85,11.43,2.86,28.55a126,126,0,0,1-2.86,28.56H613.11Q616,351.89,616,369a125.88,125.88,0,0,1-2.86,28.55h-21.4q2.84,11.43,2.85,28.56a126.56,126.56,0,0,1-2.85,28.55h-57.1a124.81,124.81,0,0,1-2.86-28.55q0-17.14,2.86-28.56H556A124.75,124.75,0,0,1,553.17,369q0-17.11,2.86-28.54h21.4a126,126,0,0,1-2.85-28.56q0-17.12,2.85-28.55h21.41A125.82,125.82,0,0,1,596,254.81q0-17.13,2.86-28.55h21.42a125.82,125.82,0,0,1-2.86-28.55q0-17.13,2.86-28.55h21.41a125.35,125.35,0,0,1-2.85-28.55q0-17.13,2.85-28.55H498.91a125.92,125.92,0,0,1-2.85-28.55q0-17.13,2.85-28.55H698.78q2.82,11.43,2.84,28.55A127.12,127.12,0,0,1,698.78,112.06Z"/><text class="cls-2" transform="translate(272.63 389.72)">*</text></g></g></svg>