<svg width="1000" height="1000" viewBox="0 0 1000 1000" fill="none" xmlns="http://www.w3.org/2000/svg">
<g clip-path="url(#clip0_1522_11)">
<path d="M232.32 587.08C234.219 594.675 235.168 604.168 235.168 615.56C235.168 626.477 234.219 635.971 232.32 644.04H203.84C205.739 651.635 206.688 661.128 206.688 672.52C206.688 683.437 205.739 692.931 203.84 701H61.44C59.5413 692.931 58.592 683.437 58.592 672.52C58.592 661.128 59.5413 651.635 61.44 644.04H32.96C31.0613 635.971 30.112 626.477 30.112 615.56C30.112 604.168 31.0613 594.675 32.96 587.08H4.48C2.58134 579.011 1.632 569.517 1.632 558.6C1.632 547.208 2.58134 537.715 4.48 530.12C2.58134 522.051 1.632 512.557 1.632 501.64C1.632 490.248 2.58134 480.755 4.48 473.16C2.58134 465.091 1.632 455.597 1.632 444.68C1.632 433.288 2.58134 423.795 4.48 416.2H32.96C31.0613 408.131 30.112 398.637 30.112 387.72C30.112 376.328 31.0613 366.835 32.96 359.24H61.44C59.5413 351.171 58.592 341.677 58.592 330.76C58.592 319.368 59.5413 309.875 61.44 302.28H203.84C205.739 309.875 206.688 319.368 206.688 330.76C206.688 341.677 205.739 351.171 203.84 359.24H232.32C234.219 366.835 235.168 376.328 235.168 387.72C235.168 398.637 234.219 408.131 232.32 416.2H175.36C173.461 408.131 172.512 398.637 172.512 387.72C172.512 376.328 173.461 366.835 175.36 359.24H89.92C91.8187 366.835 92.768 376.328 92.768 387.72C92.768 398.637 91.8187 408.131 89.92 416.2H61.44C63.3387 423.795 64.288 433.288 64.288 444.68C64.288 455.597 63.3387 465.091 61.44 473.16C63.3387 480.755 64.288 490.248 64.288 501.64C64.288 512.557 63.3387 522.051 61.44 530.12C63.3387 537.715 64.288 547.208 64.288 558.6C64.288 569.517 63.3387 579.011 61.44 587.08H89.92C91.8187 594.675 92.768 604.168 92.768 615.56C92.768 626.477 91.8187 635.971 89.92 644.04H175.36C173.461 635.971 172.512 626.477 172.512 615.56C172.512 604.168 173.461 594.675 175.36 587.08H232.32Z" fill="#060606"/>
<path d="M344.96 482.72C343.616 488.096 342.944 494.816 342.944 502.88C342.944 510.608 343.616 517.328 344.96 523.04H360.08C358.736 528.416 358.064 535.136 358.064 543.2C358.064 550.928 358.736 557.648 360.08 563.36C358.736 568.736 358.064 575.456 358.064 583.52C358.064 591.248 358.736 597.968 360.08 603.68H390.32C391.664 597.968 392.336 591.248 392.336 583.52C392.336 575.456 391.664 568.736 390.32 563.36C391.664 557.648 392.336 550.928 392.336 543.2C392.336 535.136 391.664 528.416 390.32 523.04H405.44C406.784 517.328 407.456 510.608 407.456 502.88C407.456 494.816 406.784 488.096 405.44 482.72H390.32C391.664 477.008 392.336 470.288 392.336 462.56C392.336 454.496 391.664 447.776 390.32 442.4C391.664 436.688 392.336 429.968 392.336 422.24C392.336 414.176 391.664 407.456 390.32 402.08H360.08C358.736 407.456 358.064 414.176 358.064 422.24C358.064 429.968 358.736 436.688 360.08 442.4C358.736 447.776 358.064 454.496 358.064 462.56C358.064 470.288 358.736 477.008 360.08 482.72H344.96ZM405.44 442.4C404.096 447.776 403.424 454.496 403.424 462.56C403.424 470.288 404.096 477.008 405.44 482.72H445.76C447.104 477.008 447.776 470.288 447.776 462.56C447.776 454.496 447.104 447.776 445.76 442.4H405.44ZM302.624 462.56C302.624 470.288 303.296 477.008 304.64 482.72H344.96C346.304 477.008 346.976 470.288 346.976 462.56C346.976 454.496 346.304 447.776 344.96 442.4H304.64C303.296 447.776 302.624 454.496 302.624 462.56ZM447.776 543.2C447.776 535.136 447.104 528.416 445.76 523.04H405.44C404.096 528.416 403.424 535.136 403.424 543.2C403.424 550.928 404.096 557.648 405.44 563.36H445.76C447.104 557.648 447.776 550.928 447.776 543.2ZM304.64 523.04C303.296 528.416 302.624 535.136 302.624 543.2C302.624 550.928 303.296 557.648 304.64 563.36H344.96C346.304 557.648 346.976 550.928 346.976 543.2C346.976 535.136 346.304 528.416 344.96 523.04H304.64Z" fill="black"/>
<path d="M702.928 331.76C702.928 342.677 701.979 352.171 700.08 360.24C701.979 367.835 702.928 377.328 702.928 388.72C702.928 399.637 701.979 409.131 700.08 417.2H678.72C680.619 424.795 681.568 434.288 681.568 445.68C681.568 456.597 680.619 466.091 678.72 474.16H657.36C659.259 481.755 660.208 491.248 660.208 502.64C660.208 513.557 659.259 523.051 657.36 531.12H636C637.899 538.715 638.848 548.208 638.848 559.6C638.848 570.517 637.899 580.011 636 588.08H614.64C616.539 595.675 617.488 605.168 617.488 616.56C617.488 627.477 616.539 636.971 614.64 645.04H593.28C595.179 652.635 596.128 662.128 596.128 673.52C596.128 684.437 595.179 693.931 593.28 702H536.32C534.421 693.931 533.472 684.437 533.472 673.52C533.472 662.128 534.421 652.635 536.32 645.04H557.68C555.781 636.971 554.832 627.477 554.832 616.56C554.832 605.168 555.781 595.675 557.68 588.08H579.04C577.141 580.011 576.192 570.517 576.192 559.6C576.192 548.208 577.141 538.715 579.04 531.12H600.4C598.501 523.051 597.552 513.557 597.552 502.64C597.552 491.248 598.501 481.755 600.4 474.16H621.76C619.861 466.091 618.912 456.597 618.912 445.68C618.912 434.288 619.861 424.795 621.76 417.2H643.12C641.221 409.131 640.272 399.637 640.272 388.72C640.272 377.328 641.221 367.835 643.12 360.24H500.72C498.821 352.171 497.872 342.677 497.872 331.76C497.872 320.368 498.821 310.875 500.72 303.28H700.08C701.979 310.875 702.928 320.368 702.928 331.76Z" fill="#060606"/>
</g>
<rect x="0.025" y="0.025" width="999.95" height="999.95" stroke="black" stroke-width="0.05"/>
<defs>
<clipPath id="clip0_1522_11">
<rect width="1000" height="1000" fill="white"/>
</clipPath>
</defs>
</svg>
