<svg width="72" height="72" viewBox="0 0 72 72" fill="none" xmlns="http://www.w3.org/2000/svg">
<g clip-path="url(#clip0_1501_142)">
<path d="M21.04 44.76C21.2107 45.4427 21.296 46.296 21.296 47.32C21.296 48.3013 21.2107 49.1547 21.04 49.88H18.48C18.6507 50.5627 18.736 51.416 18.736 52.44C18.736 53.4213 18.6507 54.2747 18.48 55H5.68C5.50933 54.2747 5.424 53.4213 5.424 52.44C5.424 51.416 5.50933 50.5627 5.68 49.88H3.12C2.94933 49.1547 2.864 48.3013 2.864 47.32C2.864 46.296 2.94933 45.4427 3.12 44.76H0.56C0.389333 44.0347 0.304 43.1813 0.304 42.2C0.304 41.176 0.389333 40.3227 0.56 39.64C0.389333 38.9147 0.304 38.0613 0.304 37.08C0.304 36.056 0.389333 35.2027 0.56 34.52C0.389333 33.7947 0.304 32.9413 0.304 31.96C0.304 30.936 0.389333 30.0827 0.56 29.4H3.12C2.94933 28.6747 2.864 27.8213 2.864 26.84C2.864 25.816 2.94933 24.9627 3.12 24.28H5.68C5.50933 23.5547 5.424 22.7013 5.424 21.72C5.424 20.696 5.50933 19.8427 5.68 19.16H18.48C18.6507 19.8427 18.736 20.696 18.736 21.72C18.736 22.7013 18.6507 23.5547 18.48 24.28H21.04C21.2107 24.9627 21.296 25.816 21.296 26.84C21.296 27.8213 21.2107 28.6747 21.04 29.4H15.92C15.7493 28.6747 15.664 27.8213 15.664 26.84C15.664 25.816 15.7493 24.9627 15.92 24.28H8.24C8.41067 24.9627 8.496 25.816 8.496 26.84C8.496 27.8213 8.41067 28.6747 8.24 29.4H5.68C5.85067 30.0827 5.936 30.936 5.936 31.96C5.936 32.9413 5.85067 33.7947 5.68 34.52C5.85067 35.2027 5.936 36.056 5.936 37.08C5.936 38.0613 5.85067 38.9147 5.68 39.64C5.85067 40.3227 5.936 41.176 5.936 42.2C5.936 43.1813 5.85067 44.0347 5.68 44.76H8.24C8.41067 45.4427 8.496 46.296 8.496 47.32C8.496 48.3013 8.41067 49.1547 8.24 49.88H15.92C15.7493 49.1547 15.664 48.3013 15.664 47.32C15.664 46.296 15.7493 45.4427 15.92 44.76H21.04ZM71.266 21.72C71.266 22.7013 71.1807 23.5547 71.01 24.28C71.1807 24.9627 71.266 25.816 71.266 26.84C71.266 27.8213 71.1807 28.6747 71.01 29.4H69.09C69.2607 30.0827 69.346 30.936 69.346 31.96C69.346 32.9413 69.2607 33.7947 69.09 34.52H67.17C67.3407 35.2027 67.426 36.056 67.426 37.08C67.426 38.0613 67.3407 38.9147 67.17 39.64H65.25C65.4207 40.3227 65.506 41.176 65.506 42.2C65.506 43.1813 65.4207 44.0347 65.25 44.76H63.33C63.5007 45.4427 63.586 46.296 63.586 47.32C63.586 48.3013 63.5007 49.1547 63.33 49.88H61.41C61.5807 50.5627 61.666 51.416 61.666 52.44C61.666 53.4213 61.5807 54.2747 61.41 55H56.29C56.1193 54.2747 56.034 53.4213 56.034 52.44C56.034 51.416 56.1193 50.5627 56.29 49.88H58.21C58.0393 49.1547 57.954 48.3013 57.954 47.32C57.954 46.296 58.0393 45.4427 58.21 44.76H60.13C59.9593 44.0347 59.874 43.1813 59.874 42.2C59.874 41.176 59.9593 40.3227 60.13 39.64H62.05C61.8793 38.9147 61.794 38.0613 61.794 37.08C61.794 36.056 61.8793 35.2027 62.05 34.52H63.97C63.7993 33.7947 63.714 32.9413 63.714 31.96C63.714 30.936 63.7993 30.0827 63.97 29.4H65.89C65.7193 28.6747 65.634 27.8213 65.634 26.84C65.634 25.816 65.7193 24.9627 65.89 24.28H53.09C52.9193 23.5547 52.834 22.7013 52.834 21.72C52.834 20.696 52.9193 19.8427 53.09 19.16H71.01C71.1807 19.8427 71.266 20.696 71.266 21.72Z" fill="#060606"/>
<path d="M40.66 35.88C40.7693 36.3173 40.824 36.864 40.824 37.52C40.824 38.1487 40.7693 38.6953 40.66 39.16H39.43C39.5393 39.5973 39.594 40.144 39.594 40.8C39.594 41.4287 39.5393 41.9753 39.43 42.44C39.5393 42.8773 39.594 43.424 39.594 44.08C39.594 44.7087 39.5393 45.2553 39.43 45.72H36.97C36.8607 45.2553 36.806 44.7087 36.806 44.08C36.806 43.424 36.8607 42.8773 36.97 42.44C36.8607 41.9753 36.806 41.4287 36.806 40.8C36.806 40.144 36.8607 39.5973 36.97 39.16H35.74C35.6307 38.6953 35.576 38.1487 35.576 37.52C35.576 36.864 35.6307 36.3173 35.74 35.88H36.97C36.8607 35.4153 36.806 34.8687 36.806 34.24C36.806 33.584 36.8607 33.0373 36.97 32.6C36.8607 32.1353 36.806 31.5887 36.806 30.96C36.806 30.304 36.8607 29.7573 36.97 29.32H39.43C39.5393 29.7573 39.594 30.304 39.594 30.96C39.594 31.5887 39.5393 32.1353 39.43 32.6C39.5393 33.0373 39.594 33.584 39.594 34.24C39.594 34.8687 39.5393 35.4153 39.43 35.88H40.66ZM35.74 32.6C35.8493 33.0373 35.904 33.584 35.904 34.24C35.904 34.8687 35.8493 35.4153 35.74 35.88H32.46C32.3507 35.4153 32.296 34.8687 32.296 34.24C32.296 33.584 32.3507 33.0373 32.46 32.6H35.74ZM44.104 34.24C44.104 34.8687 44.0493 35.4153 43.94 35.88H40.66C40.5507 35.4153 40.496 34.8687 40.496 34.24C40.496 33.584 40.5507 33.0373 40.66 32.6H43.94C44.0493 33.0373 44.104 33.584 44.104 34.24ZM32.296 40.8C32.296 40.144 32.3507 39.5973 32.46 39.16H35.74C35.8493 39.5973 35.904 40.144 35.904 40.8C35.904 41.4287 35.8493 41.9753 35.74 42.44H32.46C32.3507 41.9753 32.296 41.4287 32.296 40.8ZM43.94 39.16C44.0493 39.5973 44.104 40.144 44.104 40.8C44.104 41.4287 44.0493 41.9753 43.94 42.44H40.66C40.5507 41.9753 40.496 41.4287 40.496 40.8C40.496 40.144 40.5507 39.5973 40.66 39.16H43.94Z" fill="black"/>
</g>
<defs>
<clipPath id="clip0_1501_142">
<rect width="72" height="72" fill="white"/>
</clipPath>
</defs>
</svg>
